<svg xmlns="http://www.w3.org/2000/svg" width="525.596" height="231.416" viewBox="0 0 525.596 231.416"><g transform="translate(-1701.649 -496.404)"><path d="M295.525,253.748l1.223,122.243c19.186,3.268,28.576,3.16,44.486-6.94,8.17-4.7,13.78-12.35,24.085-11.835,60,4.483,66.537,46.528,37.557,39.991s-42.052-1.73-64.08,14.692c-35.916,29.4-78.372,57.555-135.923,58.374s-74.584-32.044-84.489-73.062l-20-87.33c-4.8-16.137,14.122-19.089,22.346-11.85,12.65,10.915,26.631,25.1,51.019,37.449,37.657,17.037,41.848-22.886,44.14-49.977.6-7.063.976-16.241,2.492-35.216,1.023-12.788,18.367-12.253,20-.419l3.441,24.077,3.695-24.48c2.249-13.677,18.171-13.623,19.4.008L267.9,276.26s4.437-16.468,6.8-26.592c2.671-14.377,19.815-15.719,20.827,4.079Z" transform="translate(1604.033 257.533)" fill="#134c79"/><g transform="translate(6720.973 -22768.73)"><path d="M39.172,6.4a46.813,46.813,0,0,0-7.834.669c-6.938,1.226-8.2,3.791-8.2,8.522v6.248H39.535V23.92H16.987A10.236,10.236,0,0,0,6.746,32.232a30.645,30.645,0,0,0,0,16.662c1.165,4.854,3.948,8.312,8.713,8.312H21.1v-7.49A10.419,10.419,0,0,1,31.337,39.531H47.713a8.26,8.26,0,0,0,8.2-8.331V15.589c0-4.443-3.748-7.781-8.2-8.522A51.135,51.135,0,0,0,39.172,6.4Zm-8.866,5.025a3.125,3.125,0,1,1-3.076,3.134A3.111,3.111,0,0,1,30.306,11.423Z" transform="translate(-4988.591 23258.738)" fill="#3c79a9"/><path d="M69.106,35.054v7.28A10.515,10.515,0,0,1,58.864,52.729H42.489a8.363,8.363,0,0,0-8.2,8.331V76.671c0,4.443,3.864,7.056,8.2,8.331a27.429,27.429,0,0,0,16.375,0c4.127-1.2,8.2-3.6,8.2-8.331V70.423H50.686V68.34H75.259c4.765,0,6.54-3.324,8.2-8.312,1.712-5.136,1.639-10.074,0-16.662-1.178-4.743-3.426-8.312-8.2-8.312ZM59.9,74.589A3.125,3.125,0,1,1,56.82,77.7,3.094,3.094,0,0,1,59.9,74.589Z" transform="translate(-4999.743 23247.604)" fill="#ffce3e"/></g><text transform="translate(1822.594 606)" fill="#ffce3e" font-size="61" font-family="SFProRounded-Bold, SF Pro Rounded" font-weight="700"><tspan x="0" y="0">Py</tspan></text><text transform="translate(1910.245 606)" fill="#134c79" font-size="61" font-family="SFProRounded-Semibold, SF Pro Rounded" font-weight="600"><tspan x="0" y="0">Chandigarh</tspan></text></g></svg>